<?xml version="1.0" encoding="UTF-8" standalone="no"?>
<!-- Created with Inkscape (http://www.inkscape.org/) -->

<svg
   version="1.1"
   id="svg1"
   width="24"
   height="24"
   viewBox="0 0 24 24"
   sodipodi:docname="tac-writer.svg"
   xml:space="preserve"
   inkscape:version="1.4.2 (ebf0e940d0, 2025-05-08)"
   inkscape:export-filename="../tac-writer.svg"
   inkscape:export-xdpi="960"
   inkscape:export-ydpi="960"
   xmlns:inkscape="http://www.inkscape.org/namespaces/inkscape"
   xmlns:sodipodi="http://sodipodi.sourceforge.net/DTD/sodipodi-0.dtd"
   xmlns="http://www.w3.org/2000/svg"
   xmlns:svg="http://www.w3.org/2000/svg"><defs
     id="defs1"><linearGradient
       x1="22.1875"
       y1="23.0625"
       x2="5.318624"
       y2="5.3239861"
       gradientUnits="userSpaceOnUse"
       gradientTransform="scale(0.75)"
       spreadMethod="pad"
       id="linearGradient3"><stop
         style="stop-opacity:1;stop-color:#4d4d4d"
         offset="0"
         id="stop1" /><stop
         style="stop-opacity:1;stop-color:#808080"
         offset="0.997054"
         id="stop2" /><stop
         style="stop-opacity:1;stop-color:#003380"
         offset="1"
         id="stop3" /></linearGradient></defs><sodipodi:namedview
     id="namedview1"
     pagecolor="#ffffff"
     bordercolor="#000000"
     borderopacity="0.25"
     inkscape:showpageshadow="2"
     inkscape:pageopacity="0.0"
     inkscape:pagecheckerboard="0"
     inkscape:deskcolor="#d1d1d1"
     inkscape:zoom="5.7484473"
     inkscape:cx="-32.704483"
     inkscape:cy="3.3922203"
     inkscape:window-width="1920"
     inkscape:window-height="1005"
     inkscape:window-x="0"
     inkscape:window-y="0"
     inkscape:window-maximized="1"
     inkscape:current-layer="g1"><inkscape:page
       x="0"
       y="0"
       width="24"
       height="24"
       id="page2"
       margin="0"
       bleed="0" /></sodipodi:namedview><g
     id="g1"
     inkscape:groupmode="layer"
     inkscape:label="1"><path
       id="path3"
       d="m 5.699,0.75 h 6.602 c 2.742,0 4.949,2.207 4.949,4.949 v 6.602 c 0,2.742 -2.207,4.949 -4.949,4.949 H 5.699 C 2.957,17.25 0.75,15.043 0.75,12.301 V 5.699 C 0.75,2.957 2.957,0.75 5.699,0.75 Z"
       style="fill:url(#linearGradient3);stroke:none"
       transform="scale(1.3333333)" /><path
       style="fill:#003380;stroke:none;stroke-width:0.855714"
       d="M 11.516503,3.0098959 C 9.4408174,3.2824322 7.5792642,3.8477108 5.9811048,5.2860742 5.121589,6.059648 4.44809,6.9868097 3.9148006,8.0068214 1.7629816,12.122563 3.4444703,17.437202 7.3850094,19.781459 c 1.7661745,1.050712 3.8315356,1.421908 5.8562916,1.169984 4.491275,-0.55881 7.977508,-4.74581 7.780067,-9.254355 C 20.846979,7.7149485 18.045951,4.2244379 14.163867,3.258675 13.338976,3.0534629 12.36577,2.8983879 11.516503,3.0098959 m 0.120335,4.4067354 c 2.795799,-0.3433526 4.728606,3.1185757 2.875995,5.2832457 -0.236679,0.276544 -0.513913,0.543732 -0.830305,0.726993 -0.36659,0.212335 -0.781832,0.369183 -1.203347,0.424636 C 9.7010674,14.216992 7.6457506,10.983334 9.4000606,8.6887185 9.6529534,8.3579365 9.9548084,8.0781648 10.313156,7.8645436 10.716468,7.6241162 11.171327,7.4738007 11.636838,7.4166313 M 9.5911474,14.476828 c 0.8108916,-0.1169 1.5487316,0.441481 2.3665836,0.467564 1.028758,0.03281 1.918245,-0.799359 2.928145,-0.308758 0.851765,0.41378 1.59446,1.054594 2.179457,1.794621 0.146944,0.185886 0.527977,0.587974 0.503901,0.842343 -0.02979,0.314742 -0.647285,0.713921 -0.878337,0.898487 -0.977051,0.780473 -2.166727,1.345357 -3.409484,1.537302 -1.859581,0.287211 -3.6853936,-0.07709 -5.2947298,-1.047946 -0.4851666,-0.292686 -1.2730651,-0.789433 -1.5348246,-1.30762 -0.1291486,-0.255667 0.359921,-0.77726 0.51037,-0.962678 0.6109686,-0.752977 1.6129786,-1.766857 2.6289188,-1.913315 z"
       id="path1" /><path
       style="fill:#00112b;stroke:none;stroke-width:0.519348"
       d="m 9.1909163,10.462523 c 0.036141,0.02057 0.077969,0.03375 0.116312,0.04984 0.075659,0.03175 0.1515564,0.06293 0.2272151,0.09467 0.2180226,0.09148 0.4365736,0.181711 0.6545956,0.273199 0.113509,0.04763 0.227034,0.09529 0.340823,0.142242 0.0343,0.01416 0.06865,0.0283 0.102791,0.04285 0.01566,0.0066 0.03444,0.01825 0.05139,0.02032 0.01521,0.0019 0.03104,-0.01361 0.04327,-0.02099 0.0306,-0.01846 0.06183,-0.03542 0.09467,-0.04956 0.0839,-0.03609 0.171414,-0.05695 0.262379,-0.06322 0.03057,-0.0022 0.06448,-0.007 0.09467,2.42e-4 0.0476,-0.08355 0.109945,-0.161209 0.16407,-0.24074 0.114859,-0.168792 0.230526,-0.337031 0.34539,-0.505824 0.04952,-0.07278 0.109848,-0.144276 0.151495,-0.221805 0.0144,-0.02682 0.0047,-0.07773 0.0076,-0.108198 0.0075,-0.07893 0.02204,-0.1568118 0.0456,-0.2326253 0.09726,-0.3129767 0.344692,-0.5692673 0.651822,-0.6815014 0.124751,-0.045584 0.268576,-0.072779 0.401479,-0.060265 0.2035,0.019161 0.39015,0.07332 0.558775,0.1938249 0.09387,0.067082 0.175455,0.1494664 0.243757,0.2422888 0.266022,0.3615203 0.266413,0.865984 0.01314,1.233452 -0.139565,0.202496 -0.355419,0.360288 -0.595017,0.420958 -0.06388,0.01617 -0.128958,0.02872 -0.194756,0.03323 -0.02998,0.002 -0.07533,-0.0058 -0.102791,0.0059 -0.03528,0.01505 -0.0689,0.04813 -0.100081,0.07047 -0.06954,0.04982 -0.138686,0.100202 -0.20828,0.149958 -0.207345,0.148228 -0.420639,0.291757 -0.622084,0.447874 -0.02483,0.01925 -0.01108,0.06353 -0.01434,0.09155 -0.0095,0.08076 -0.0201,0.158524 -0.04907,0.235331 -0.101093,0.268066 -0.345411,0.474595 -0.631806,0.513175 -0.299514,0.04034 -0.599103,-0.09596 -0.767243,-0.348174 -0.03973,-0.05959 -0.07031,-0.124201 -0.09293,-0.192051 -0.0077,-0.023 -0.0118,-0.07958 -0.03058,-0.09469 -0.02976,-0.02401 -0.08276,-0.03586 -0.118195,-0.0503 -0.08234,-0.03354 -0.163798,-0.06926 -0.24615,-0.102791 -0.160116,-0.06518 -0.319363,-0.132788 -0.4787744,-0.199681 -0.071165,-0.02987 -0.1467548,-0.07303 -0.2218049,-0.09082 0.1053128,0.371115 0.2842453,0.721007 0.5290203,1.019763 0.224422,0.273912 0.499,0.509009 0.809926,0.679766 0.250828,0.137752 0.519759,0.239312 0.800662,0.295503 0.865986,0.173231 1.789133,-0.08244 2.437151,-0.686083 0.236524,-0.220326 0.434005,-0.479354 0.58486,-0.765256 0.209397,-0.396851 0.309973,-0.838649 0.321226,-1.284953 0.0075,-0.294296 -0.03941,-0.601727 -0.130662,-0.881704 -0.141101,-0.4329108 -0.374,-0.8293209 -0.696986,-1.1523033 -0.29599,-0.295987 -0.6584,-0.5206888 -1.05222,-0.6608408 C 12.209396,7.7819037 11.426941,7.8274303 10.775972,8.142399 10.096614,8.4711033 9.579394,9.0642069 9.3324648,9.7754845 9.2789413,9.929658 9.2413657,10.090377 9.2163696,10.251553 c -0.010683,0.06884 -0.00947,0.143681 -0.02549,0.210986 M 12.839853,9.2572827 c -0.120338,0.015813 -0.234771,0.047933 -0.335412,0.1190133 -0.311405,0.2199351 -0.404061,0.656479 -0.192043,0.978039 0.04604,0.06983 0.103442,0.130215 0.170403,0.18022 0.07127,0.05322 0.152321,0.09102 0.238035,0.114208 0.08939,0.02417 0.184393,0.02821 0.275904,0.01587 0.0982,-0.01322 0.192203,-0.04937 0.275904,-0.101888 0.06465,-0.04056 0.122152,-0.09207 0.169871,-0.151612 0.249801,-0.311645 0.190257,-0.7721808 -0.123886,-1.0159065 -0.06681,-0.051823 -0.146096,-0.090049 -0.227216,-0.1131963 -0.07888,-0.022509 -0.169579,-0.035528 -0.25156,-0.024761 m 0.02976,0.1727404 c 0.04417,-0.00518 0.09195,0.00145 0.135248,0.01 0.258971,0.051787 0.439635,0.2983583 0.421729,0.5599224 -0.01731,0.25275 -0.216738,0.46172 -0.467714,0.491527 -0.06233,0.0073 -0.125761,0.0028 -0.186641,-0.0124 -0.06159,-0.01538 -0.121018,-0.04147 -0.173116,-0.07803 -0.266603,-0.18715 -0.30444,-0.586035 -0.07292,-0.8175406 0.09501,-0.095011 0.212916,-0.1381179 0.34342,-0.1535155 m -1.942145,1.7574381 c 0.172488,0.09195 0.395541,0.118363 0.523543,0.278609 0.178092,0.222951 0.09493,0.567807 -0.169197,0.681238 -0.04432,0.01904 -0.09236,0.03202 -0.140657,0.03534 -0.195674,0.01339 -0.36041,-0.123958 -0.540987,-0.175579 0.04987,0.119784 0.155934,0.219431 0.270493,0.276571 0.09826,0.04901 0.202707,0.06422 0.311068,0.05894 0.09905,-0.0048 0.202903,-0.04302 0.284018,-0.09943 0.249695,-0.173672 0.338453,-0.523179 0.185485,-0.790598 -0.111052,-0.194135 -0.316352,-0.311285 -0.539842,-0.303052 -0.05674,0.002 -0.13456,0.0067 -0.183924,0.03797 z"
       id="path2" /></g></svg>
